<!DOCTYPE svg PUBLIC "-//W3C//DTD SVG 1.1//EN" "http://www.w3.org/Graphics/SVG/1.1/DTD/svg11.dtd">
<svg xmlns="http://www.w3.org/2000/svg" xmlns:xlink="http://www.w3.org/1999/xlink" version="1.1" width="741px" height="601px" viewBox="-0.5 -0.5 741 601"><defs/><path d="M 482 218 L 482 218.5 Q 482 219 490 219 L 575 219 Q 583 219 583 227 L 583 459 Q 583 467 591 467 L 619 467" fill="none" stroke="#a10000" stroke-width="24" stroke-miterlimit="10" pointer-events="none"/><path d="M 300.15 87.5 C 417.23 87.5 512.15 182.42 512.15 299.5 C 512.15 416.58 417.23 511.5 300.15 511.5 C 183.06 511.5 88.15 416.58 88.15 299.5 C 88.15 182.42 183.06 87.5 300.15 87.5 Z M 285.31 187.14 C 330.1 165.58 380.61 158.89 429.47 168.06 C 376.69 116.51 298.93 100 229.76 125.66 Z M 317.11 218.94 L 376.47 274.06 C 392.2 261.91 414.26 262.31 429.53 275.04 C 444.81 287.77 449.19 309.39 440.07 327.06 L 479.08 356.74 C 495.84 298.43 483.88 235.63 446.85 187.56 C 401.35 183.78 355.85 194.78 317.11 218.94 Z M 202.63 138.38 C 186.95 147.61 172.67 159.03 160.23 172.3 C 162.4 200.21 169.58 227.5 181.43 252.86 C 189.68 250.44 198.33 249.72 206.87 250.74 C 221.73 231.09 239.62 213.91 259.87 199.86 L 202.63 138.38 Z M 139.03 201.98 C 100.55 266.83 103.88 348.25 147.51 409.74 C 148.81 391.01 152.37 372.5 158.11 354.62 C 135.9 331.02 134.99 294.5 155.99 269.82 C 146.96 248.19 141.24 225.32 139.03 201.98 Z M 177.19 447.9 C 253.87 508.05 363.56 500.74 431.59 430.94 C 406.15 433.11 380.55 432.4 355.27 428.82 C 344.41 443.68 325 449.51 307.74 443.1 C 290.49 436.7 279.59 419.61 281.07 401.26 C 263.55 391.9 247.18 380.51 232.31 367.34 C 218.15 375.35 201.45 377.62 185.67 373.7 C 177.36 397.5 174.47 422.84 177.19 447.9 Z M 251.39 341.9 C 264.66 355.12 279.63 366.53 295.91 375.82 C 307.38 365.03 324.08 361.91 338.67 367.84 C 353.25 373.77 363.05 387.65 363.75 403.38 C 394.01 408.5 424.86 409.22 455.33 405.5 C 460.61 398.76 465.42 391.68 469.75 384.3 C 452.51 372.11 436.21 358.64 420.99 344.02 C 406.53 350.68 389.56 348.69 377.04 338.85 C 364.53 329.02 358.57 313 361.63 297.38 C 338.22 277.78 316.26 256.53 295.91 233.78 C 278.48 244.86 262.77 258.43 249.27 274.06 C 259.39 295.39 260.16 319.98 251.39 341.9 Z" fill="#a10000" stroke="none" transform="rotate(313,300.15,299.5)" pointer-events="none"/><path d="M 670 446 L 695.89 420.11" fill="none" stroke="#a10000" stroke-width="8" stroke-miterlimit="10" pointer-events="none"/><path d="M 706.5 409.5 L 706.5 420.11 L 695.89 420.11 L 695.89 409.5 Z" fill="#a10000" stroke="#a10000" stroke-width="8" stroke-miterlimit="10" pointer-events="none"/><path d="M 670 488 L 695.83 512.98" fill="none" stroke="#a10000" stroke-width="8" stroke-miterlimit="10" pointer-events="none"/><ellipse cx="701" cy="518" rx="6.5" ry="6.5" fill="#a10000" stroke="#a10000" stroke-width="8" pointer-events="none"/><path d="M 679 467 L 707.56 467.28" fill="none" stroke="#a10000" stroke-width="8" stroke-miterlimit="10" pointer-events="none"/><path d="M 720.56 467.41 L 707.51 471.62 L 707.6 462.95 Z" fill="#a10000" stroke="#a10000" stroke-width="8" stroke-miterlimit="10" pointer-events="none"/><ellipse cx="649" cy="467" rx="30" ry="30" fill="none" stroke="#a10000" stroke-width="24" pointer-events="none"/></svg>